HIERARCHY
ROOT Hips
{
	OFFSET -14.64140 90.27770 -84.91600
	CHANNELS 6 Xposition Yposition Zposition Zrotation Xrotation Yrotation
	JOINT Spine
	{
		OFFSET 0.00000 13.20850 -1.60436
		CHANNELS 3 Zrotation Xrotation Yrotation
		JOINT Spine1
		{
			OFFSET 0.00000 8.61716 0.00000
			CHANNELS 3 Zrotation Xrotation Yrotation
			JOINT Spine2
			{
				OFFSET 0.00000 8.61717 0.00000
				CHANNELS 3 Zrotation Xrotation Yrotation
				JOINT Spine3
				{
					OFFSET 0.00000 8.61717 0.00000
					CHANNELS 3 Zrotation Xrotation Yrotation
					JOINT Neck
					{
						OFFSET 0.00000 11.07920 1.10792
						CHANNELS 3 Zrotation Xrotation Yrotation
						JOINT Neck1
						{
							OFFSET 0.00000 7.08032 0.00000
							CHANNELS 3 Zrotation Xrotation Yrotation
							JOINT Head
							{
								OFFSET 0.00000 7.08031 0.00000
								CHANNELS 3 Zrotation Xrotation Yrotation
								End site
								{
									OFFSET 0.00000 0.00000 0.00000
								}
							}
						}
					}
					JOINT RightShoulder
					{
						OFFSET -0.01000 7.91373 5.19711
						CHANNELS 3 Zrotation Xrotation Yrotation
						JOINT RightArm
						{
							OFFSET -18.41580 0.00000 0.00000
							CHANNELS 3 Zrotation Xrotation Yrotation
							JOINT RightForeArm
							{
								OFFSET -29.11090 0.00000 0.00000
								CHANNELS 3 Zrotation Xrotation Yrotation
								JOINT RightHand
								{
									OFFSET -24.65040 0.00000 0.00000
									CHANNELS 3 Zrotation Xrotation Yrotation
									JOINT RightHandThumb1
									{
										OFFSET -5.35114 -0.85590 3.97906
										CHANNELS 3 Zrotation Xrotation Yrotation
										JOINT RightHandThumb2
										{
											OFFSET -4.52789 0.00000 0.00000
											CHANNELS 3 Zrotation Xrotation Yrotation
											JOINT RightHandThumb3
											{
												OFFSET -2.46976 0.00000 0.00000
												CHANNELS 3 Zrotation Xrotation Yrotation
												End site
												{
													OFFSET 0.00000 0.00000 0.00000
												}
											}
										}
									}
									JOINT RightHandIndex1
									{
										OFFSET -14.26970 0.00000 2.88139
										CHANNELS 3 Zrotation Xrotation Yrotation
										JOINT RightHandIndex2
										{
											OFFSET -5.48836 0.00000 0.00000
											CHANNELS 3 Zrotation Xrotation Yrotation
											JOINT RightHandIndex3
											{
												OFFSET -3.01859 0.00000 0.00000
												CHANNELS 3 Zrotation Xrotation Yrotation
												End site
												{
													OFFSET 0.00000 0.00000 0.00000
												}
											}
										}
									}
									JOINT RightHandMiddle1
									{
										OFFSET -14.26970 0.00000 -0.09147
										CHANNELS 3 Zrotation Xrotation Yrotation
										JOINT RightHandMiddle2
										{
											OFFSET -6.17441 0.00000 0.00000
											CHANNELS 3 Zrotation Xrotation Yrotation
											JOINT RightHandMiddle3
											{
												OFFSET -3.56743 0.00000 0.00000
												CHANNELS 3 Zrotation Xrotation Yrotation
												End site
												{
													OFFSET 0.00000 0.00000 0.00000
												}
											}
										}
									}
									JOINT RightHandRing1
									{
										OFFSET -12.69180 0.00000 -3.06433
										CHANNELS 3 Zrotation Xrotation Yrotation
										JOINT RightHandRing2
										{
											OFFSET -5.62556 0.00000 0.00000
											CHANNELS 3 Zrotation Xrotation Yrotation
											JOINT RightHandRing3
											{
												OFFSET -3.56744 0.00000 0.00000
												CHANNELS 3 Zrotation Xrotation Yrotation
												End site
												{
													OFFSET 0.00000 0.00000 0.00000
												}
											}
										}
									}
									JOINT RightHandPinky1
									{
										OFFSET -11.11390 0.00000 -6.03719
										CHANNELS 3 Zrotation Xrotation Yrotation
										JOINT RightHandPinky2
										{
											OFFSET -4.52789 0.00000 0.00000
											CHANNELS 3 Zrotation Xrotation Yrotation
											JOINT RightHandPinky3
											{
												OFFSET -2.46976 0.00000 0.00000
												CHANNELS 3 Zrotation Xrotation Yrotation
												End site
												{
													OFFSET 0.00000 0.00000 0.00000
												}
											}
										}
									}
								}
							}
						}
					}
					JOINT LeftShoulder
					{
						OFFSET 0.01000 7.91373 5.19711
						CHANNELS 3 Zrotation Xrotation Yrotation
						JOINT LeftArm
						{
							OFFSET 18.41580 0.00000 0.00000
							CHANNELS 3 Zrotation Xrotation Yrotation
							JOINT LeftForeArm
							{
								OFFSET 29.11090 0.00000 0.00000
								CHANNELS 3 Zrotation Xrotation Yrotation
								JOINT LeftHand
								{
									OFFSET 24.65040 0.00000 0.00000
									CHANNELS 3 Zrotation Xrotation Yrotation
									JOINT LeftHandThumb1
									{
										OFFSET 5.35114 -0.85590 3.97906
										CHANNELS 3 Zrotation Xrotation Yrotation
										JOINT LeftHandThumb2
										{
											OFFSET 4.52789 0.00000 0.00000
											CHANNELS 3 Zrotation Xrotation Yrotation
											JOINT LeftHandThumb3
											{
												OFFSET 2.46977 0.00000 0.00000
												CHANNELS 3 Zrotation Xrotation Yrotation
												End site
												{
													OFFSET 0.00000 0.00000 0.00000
												}
											}
										}
									}
									JOINT LeftHandIndex1
									{
										OFFSET 14.26970 0.00000 2.88139
										CHANNELS 3 Zrotation Xrotation Yrotation
										JOINT LeftHandIndex2
										{
											OFFSET 5.48836 0.00000 0.00000
											CHANNELS 3 Zrotation Xrotation Yrotation
											JOINT LeftHandIndex3
											{
												OFFSET 3.01859 0.00000 0.00000
												CHANNELS 3 Zrotation Xrotation Yrotation
												End site
												{
													OFFSET 0.00000 0.00000 0.00000
												}
											}
										}
									}
									JOINT LeftHandMiddle1
									{
										OFFSET 14.26970 0.00000 -0.09147
										CHANNELS 3 Zrotation Xrotation Yrotation
										JOINT LeftHandMiddle2
										{
											OFFSET 6.17440 0.00000 0.00000
											CHANNELS 3 Zrotation Xrotation Yrotation
											JOINT LeftHandMiddle3
											{
												OFFSET 3.56744 0.00000 0.00000
												CHANNELS 3 Zrotation Xrotation Yrotation
												End site
												{
													OFFSET 0.00000 0.00000 0.00000
												}
											}
										}
									}
									JOINT LeftHandRing1
									{
										OFFSET 12.69180 0.00000 -3.06433
										CHANNELS 3 Zrotation Xrotation Yrotation
										JOINT LeftHandRing2
										{
											OFFSET 5.62556 0.00000 0.00000
											CHANNELS 3 Zrotation Xrotation Yrotation
											JOINT LeftHandRing3
											{
												OFFSET 3.56744 0.00000 0.00000
												CHANNELS 3 Zrotation Xrotation Yrotation
												End site
												{
													OFFSET 0.00000 0.00000 0.00000
												}
											}
										}
									}
									JOINT LeftHandPinky1
									{
										OFFSET 11.11390 0.00000 -6.03719
										CHANNELS 3 Zrotation Xrotation Yrotation
										JOINT LeftHandPinky2
										{
											OFFSET 4.52789 0.00000 0.00000
											CHANNELS 3 Zrotation Xrotation Yrotation
											JOINT LeftHandPinky3
											{
												OFFSET 2.46976 0.00000 0.00000
												CHANNELS 3 Zrotation Xrotation Yrotation
												End site
												{
													OFFSET 0.00000 0.00000 0.00000
												}
											}
										}
									}
								}
							}
						}
					}
					JOINT pCube4
					{
						OFFSET 0.00000 10.91090 1.10792
						CHANNELS 3 Zrotation Xrotation Yrotation
						End site
						{
							OFFSET 0.00000 0.00000 0.00000
						}
					}
				}
			}
		}
	}
	JOINT RightUpLeg
	{
		OFFSET -9.98441 0.00000 0.00000
		CHANNELS 3 Zrotation Xrotation Yrotation
		JOINT RightLeg
		{
			OFFSET 0.00000 -42.11790 0.00000
			CHANNELS 3 Zrotation Xrotation Yrotation
			JOINT RightFoot
			{
				OFFSET 0.00000 -45.00020 -0.00001
				CHANNELS 3 Zrotation Xrotation Yrotation
				JOINT RightForeFoot
				{
					OFFSET 0.00000 -3.74820 0.00000
					CHANNELS 3 Zrotation Xrotation Yrotation
					JOINT RightToeBase
					{
						OFFSET 0.00000 0.06325 14.43120
						CHANNELS 3 Zrotation Xrotation Yrotation
						End site
						{
							OFFSET 0.00000 0.00000 0.00000
						}
					}
				}
			}
		}
	}
	JOINT LeftUpLeg
	{
		OFFSET 9.98441 0.00000 0.00000
		CHANNELS 3 Zrotation Xrotation Yrotation
		JOINT LeftLeg
		{
			OFFSET 0.00000 -42.11800 0.00000
			CHANNELS 3 Zrotation Xrotation Yrotation
			JOINT LeftFoot
			{
				OFFSET 0.00000 -45.00070 0.00000
				CHANNELS 3 Zrotation Xrotation Yrotation
				JOINT LeftForeFoot
				{
					OFFSET 0.00000 -3.74824 0.00000
					CHANNELS 3 Zrotation Xrotation Yrotation
					JOINT LeftToeBase
					{
						OFFSET 0.00000 0.06325 14.43110
						CHANNELS 3 Zrotation Xrotation Yrotation
						End site
						{
							OFFSET 0.00000 0.00000 0.00000
						}
					}
				}
			}
		}
	}
}
MOTION
Frames: 4
Frame Time: 0.050000
-0.028616732923442037 -0.04143356277790276 0.004538679815635236 0.011985237621756881 0.02683059713401781 -0.015566865000220137 -3.6873562281050036 6.132554876241306 -0.7072576838225318 -1.0718292330602794 4.089454077780983 0.44730826404584517 -0.9881926691414274 0.7415523540185328 -0.04159642556532671 1.2699270264946607 1.0579613249385866 -0.84534427670528 0.031096652859825165 9.630282449142257 -1.1507885806986207 -0.43425492953054184 -1.643425699403595 -5.953788927416771 0.05663607777485219 -16.198929932849186 -0.4470945181888672 4.684819489994342 -0.8148273593533235 -14.480303664274496 62.628937450141514 17.463425401574483 12.964638810207964 17.93694821741318 6.188499186643405 94.3320076751176 13.860572577743039 -0.30597241713551887 -7.877821882470931 4.542802765713957 -0.12410159078964819 -1.5458052556884174 0.031039810298444846 0.003614398956758954 -56.22486546342495 0.02819961499048372 -0.028589403078530324 -56.223250779516036 -38.73253219861564 -0.017068537536165045 0.0316402805441332 0.04330976579635831 0.03325585400893845 0.03601155106869852 0.035228389061573696 -0.001890102863554808 0.004367529827821841 -36.723006530157164 0.024285428844577267 0.02527337441359751 -0.0002751900668205002 -0.02637801546723365 -0.046470248818893195 -0.024171466404243443 -0.015232270039224593 -0.03208667165882167 -19.732542404727983 0.007638791988478582 0.025223627867137183 -0.011410853132611889 -0.04408004039623102 0.02059938821811661 -0.009165028060968278 0.0045699448102581855 -0.026860906551445667 24.007208019490264 -0.028687914404283716 -0.03724525672783581 28.85264309748487 -0.02314841282568679 0.01956439128923142 28.896542105233355 0.03455679035336457 0.049485930091380456 -4.941849256819677 -0.4934978449734152 12.864513188883727 -62.5508852951522 28.17707582025833 -7.330448404883845 -2.222580953221413 3.795617503925333 -63.90815088237749 -13.591544355025208 3.8566841811235846 0.41615236961388696 -0.48432581168777455 0.061467075667497276 -8.136687121821353 -0.009594968793308496 -0.020244089289975252 44.5621748956768 0.014118621396980982 0.034954502504521305 44.597793423855805 12.43979205194936 -0.016366222854950648 -0.014113811241590047 0.0375896765298738 0.01690736126514127 -0.03535117523349964 -0.007637125719816784 -0.008382133735456227 0.006846926840259465 11.082839151805999 -0.04171914563192309 -0.04504604632740356 0.04411228179494728 -0.01139725081339472 -0.02162817861993791 -0.03361836592917447 -0.024341980305232196 -0.04788549210314233 4.817520850494683 -0.0033062987927665946 -0.005112792739665783 -0.0239970296195438 -0.009603909587610829 0.02546124948664371 -0.015391274321485019 -0.027188151115141383 -0.0005596831489123581 -5.625732048292655 0.018950105560679706 -0.023203306763305655 -6.745470830491353 -0.04687977842929465 0.0306904832446079 -6.729774460595821 -0.014830914362813023 -0.042189449751481506 0.04877654320976058 0.01902446447198559 0.02452844974069371 8.033792901841124 3.523112627826007 -19.19909018311543 -0.017204447207894366 10.40652958130536 -0.01788050855241517 -5.646569131242568 -15.64529092763632 3.152241031720141 -0.001764676691399281 -0.01900319688017258 0.019082344040147324 -0.017809352042857655 4.73812247234701 -0.02210801971966628 12.506806754676555 -8.233059539514928 6.871724124644522 0.0007796757410371807 46.411690475325386 0.014351270332848784 -4.3039997845540645 -14.726295431018439 -3.864316767988932 0.025717514526069078 -0.002855116872965723 0.049993466565560384 0.024753232682574056 -10.76187755557488 -0.020226777250867585 
0.009715254347232397 -0.02260125809805137 -0.024746369881266186 0.007395669996755056 0.0019839578966295668 0.027082454836773396 -3.630858187002796 6.272266109054707 -0.7757481407625336 -1.0545071117500955 4.0861155632449835 0.4806147190194356 -0.9992946729745388 0.7889481706253576 -0.0895890326361314 1.1747711108785956 1.0171360871003157 -0.8515605274779425 -0.05089323444195655 9.464927045275388 -1.1060996302429424 -0.41113843074496736 -1.7748782397711962 -5.907165099382163 0.0018465549908490073 -16.338363361711448 -0.42736785412523065 4.8268787964465325 -0.7690404808320042 -14.377053168100694 62.6371311823841 17.003225884134643 12.558081360439521 19.637434198760147 6.722553092799175 93.8294961427321 14.301976115662562 -0.3312243586588355 -8.147660230189285 4.552103348448936 -0.09797218616231794 -1.6271158914114192 -0.01351658790303735 0.03854326621636922 -56.248775731445676 -0.049740516707503686 0.04138178929621046 -56.239854685992874 -38.81613447443024 -0.019664697439373737 0.0057877782319716445 0.00216859397536421 0.04015315888871929 -0.0007432655997833668 -0.016238382052372602 0.012934681571923715 0.016891365526582335 -36.689396484193246 0.028642187257271346 -0.044093080607381055 0.04603298570564026 0.006041892329670221 0.013438634034304061 -0.005393281815781499 -0.02664009245053096 0.00988346644354498 -19.769598791828603 0.046661229231199 0.03605368119441651 -0.033993947189607104 -0.014882428735503377 0.00039656440954929554 0.040328380499405014 -0.041133078687862534 0.014645841948017973 24.073765744764252 0.03291908618603788 -0.0042291362138401475 28.865748833643366 0.017793482085170387 0.02227829153715616 28.825170265941907 0.015728418658486308 -0.04486076026178073 -4.958700006282916 -0.5126516028081461 12.727974142678379 -62.21583647910316 28.32424808762826 -7.664974669535221 -3.7930529367402865 4.4303140820340845 -66.35008910948305 -13.973966570674294 3.37455373742015 0.5954394328719446 -0.4557797975415481 0.022584117626585236 -8.149894972433362 -0.03483494806587926 0.04304100777376048 44.52574328754939 -0.003611324012260217 0.00906479115045334 44.60265788915603 12.413359215318417 0.004696085262236683 0.009609479084906869 -0.023596482179863144 0.014262002147825656 0.04130874254163572 0.02440110585695494 -0.03493013999322382 0.03379158793025136 11.11115826900189 -0.007128340547753097 -0.023751524474052304 -0.04505611378464294 -0.010205210266428785 0.015103295079797664 0.011820345696802898 -0.008618500122771485 0.039226250755190456 4.764662477809075 0.0017697846639602413 -0.008922065516051809 0.007180168465235591 0.014161840706413598 -0.006729052074069212 -0.003953288318438716 0.006064081379692416 0.02278829229298836 -5.647236680507887 0.02531811238979881 -0.009340475779569979 -6.741520299266813 0.038227490293736184 0.032629124664224046 -6.7328908969292165 -0.01584219616291776 0.030116271054539595 -0.0467133906634482 0.024584765949841436 0.03096463523126351 8.07170563012077 3.453565997963741 -19.258228920495288 0.032048377428474197 10.366000903658376 0.0589988638247253 -5.643350204275572 -15.67972138074564 3.1836015552246746 0.020729855169752287 0.023411931332233963 0.002071453301976866 -0.023848644432812434 4.651643474450611 0.03770224685298971 12.460743617279167 -8.235900236084193 6.862474604664005 0.037001388552425754 46.3444412575377 0.04212437093425395 -4.300175423580864 -14.745887638631357 -3.80254163830801 0.012044885100287448 0.02790657704318983 0.025254967758321867 -0.042084852198806214 -10.727746947397172 -0.04244305988699151 
0.02826920207817496 -0.008211303567294747 0.004978067791680565 0.04511859698961825 -0.014948634132935594 0.027567080738140976 -3.4899536879044626 6.246959328291687 -0.7353661474661034 -0.9922814119945215 4.061620259999717 0.45467989614514376 -0.9864473174035174 0.7456794260572125 -0.20453531562162902 1.1726650486376058 0.9876992053737964 -0.8623387987351491 -0.06577540406999066 9.395689660083333 -1.0680717297793278 -0.4292503788176335 -1.7597485832674373 -5.751349238280149 -0.00409699805182042 -16.396005498343968 -0.4648308199908774 4.7388328013117595 -0.7402229478038296 -14.207266640670044 63.05490678652851 16.916687388162153 12.097826794757367 21.639655921840344 7.203736434355072 93.85000527357249 14.66131846364594 -0.22638836258191283 -8.232616959644243 4.5630881993423085 -0.09649385747466856 -1.5639119788190408 -0.009656842093661328 0.006370607733207788 -56.20445569976925 0.007510873050915184 -0.017701263190824542 -56.227380182318946 -38.80568056558438 0.02553846792078144 -0.0005298314921509747 0.02686805746416199 0.0050244678273654 0.042277609151651796 0.003199425600211186 0.001991605683310493 0.011234506128654214 -36.72976307685428 -0.0036625573783019925 0.024882619318403392 0.012370151121747415 -0.002741410050005154 -0.01096541078853509 0.023334186517713303 0.0041744049091064096 0.00635957721173759 -19.74196913359238 0.04661177712911668 -0.02668572765189272 0.0012980637361971544 0.005796927208871533 0.00014388098194859048 0.014026711102723365 -0.023604657224543683 -0.03171931646390199 24.049015027704414 0.008745520512530386 -0.00048331495447022463 28.82891164645871 0.02288038250885771 -0.03087959696794734 28.86485810950327 -0.01001309024167092 -0.029999534477664246 -4.589963116878286 -0.48447296106897947 12.564914079135857 -62.199635732290744 28.54566464851536 -8.183349719479644 -5.912389287135511 5.02938402636235 -69.40933648477457 -14.173074423715013 2.727668401163934 0.812024554919052 -0.5198537303270229 0.04921790452944381 -8.113084718230228 0.007957689383082727 0.03863436216550023 44.59038994239349 -0.003951763206118967 0.014218781060253637 44.60476467084306 12.468925012881844 0.028333768419874682 0.033106511245206756 0.002466668524882708 -0.02463927291642791 -0.008206305895402385 -0.024323820450692164 -0.005560492395367157 -0.048845479514607125 11.097633060074402 -0.02074295042264186 0.004703235359902912 -0.025299214186746657 0.004626124764532951 -0.02792420355229608 0.024353756497417653 -0.004312158120134347 0.0002767693292679654 4.736812610816166 -0.039361693267887854 -0.03177855292620375 -0.01688910047954394 0.04735078744197431 -0.03950998387686065 0.02955673688096368 -0.012118894556488432 -0.0022457933176855804 -5.604379577667541 0.009416854396642525 0.040766431751932175 -6.754569447308713 0.02610876938503733 -0.026243909764055735 -6.722250379977505 0.034461310661391235 0.042739925921475144 -0.011040834521296354 0.048883950677114874 -0.01981077366441464 8.051712235762535 3.503280123932162 -19.175689334683398 0.008905202316764163 10.384000933823542 0.0577633131395507 -5.6217687028567305 -15.618943185588272 3.205224475268832 -0.03900949566026661 -0.012682829677799833 -0.004625464827306846 -0.009627495839467955 4.701999429337979 -0.03396964911788583 12.459794328904641 -8.258533747853114 6.8467574842999115 0.03519202692761701 46.387675157109996 0.04234072474131167 -4.347914962793998 -14.776107503398809 -3.8658317699414386 0.03840837867126549 0.0021404522890927737 0.029471694093465995 0.03235392939962952 -10.765250031920631 -0.0014995111800712286 
-0.011047447795927569 -0.03329060944880368 0.0026772238177569553 0.007916102924734549 0.0038118032070178715 -0.019006631956465705 -3.2913280515141405 6.17129392194061 -0.770517705419925 -1.0380115511441035 4.022787761387427 0.45303607916228733 -0.9525761785789528 0.7021572324731219 -0.2657076979982101 1.17770478580488 0.9467058735403865 -0.8062295443524989 -0.08087623482375952 9.478998845443694 -1.0452748413363342 -0.39663383412501585 -1.6996361716691155 -5.4795018137279285 -0.030506370812711996 -16.418635061583124 -0.3626758425544655 4.601360186665188 -0.7012644650744522 -14.085503515682763 63.65732156313289 16.65172714137342 11.519790885363475 24.05997375156323 7.6546301240023915 94.00380073814121 14.920733739696665 -0.21078959655909785 -8.448510686179173 4.513888431229997 -0.10821338417986766 -1.5489985471595404 -0.0193077300669457 -0.02925048601100821 -56.24101859274472 0.010714127118405532 -0.0481511357983485 -56.211551737589105 -38.811024683241016 0.0340080506129771 -0.003330574003167163 0.013592347695249083 0.003708719883678609 -0.007764863762491261 -0.015486565148869355 -0.042402684654177535 0.04550014621614973 -36.668132915698095 -0.03543311861478576 0.02440575204313576 -0.043790512006928003 -0.014189669982067941 0.02537834145025919 0.01569803079607127 0.010243962683860358 -0.007265634758568532 -19.75988372681144 0.035645465649388905 0.01471415732424136 -0.008020027723674293 0.03034662462681629 -0.046335662647958645 -0.032157364654883495 0.012286824221673988 0.016032671069402843 24.012453370564316 -0.004942582966736842 0.007678455767785145 28.843662778792698 0.001979592188394625 -0.0017681848025333552 28.869185531380225 -0.011734862211343336 0.028070143311367417 -4.209791000858396 -0.3842080751284237 12.460093607031363 -62.289930790627245 28.728824485482527 -8.874500715604558 -7.981871877431341 5.56417708287574 -73.01735452570293 -14.169774440295122 2.3134219575088304 0.874205925479069 -0.49310985657391554 0.09194847774550965 -8.140704372528079 -0.0238199150775003 0.016240256224009604 44.535732074674634 -0.041005941181544 0.011458414528907928 44.60543977386542 12.46286824317062 0.01104210209776802 -0.04728045464578362 0.020468433596633757 0.048400980494242386 0.0006979696818389014 -0.04272493736606965 0.031379691594132474 0.030179137301217178 11.109526097173768 -0.04106187093841667 0.044890000741353346 -0.03566124410905823 -0.01985968481091255 -0.0072264816179075896 0.0390105222030382 0.006806951713706826 -0.02830290203721645 4.742831422465019 0.012787515998125248 0.026094884861856845 0.03337498157448125 -0.0469251477310819 -0.004999615655123509 -0.037270943171351566 0.019581855815147913 0.042291846581697455 -5.631236302243011 0.038031180219419716 0.0347855885876723 -6.732082150513966 0.021799781687991755 0.027004067116539385 -6.700883988680615 0.0447348522322018 -0.03718883950376547 0.04684619296650855 -0.0037889380421549644 0.03656469533474165 8.086754207133971 3.449828695273011 -19.204802711936885 0.0028337648491744125 10.345327557494818 -0.03417935453035588 -5.632867221406343 -15.633879425978348 3.226689022906656 -0.047534602922889815 -0.025008695859707646 0.00014385869716680718 -0.02848588535581395 4.701922632366322 -0.002053474415722647 12.432010924905102 -8.214733517631748 6.922247312217609 0.027584026024652285 46.40757087573625 0.04075960294655355 -4.276288273817492 -14.79076709041086 -3.795236671037814 -0.00042064814639890074 0.04253902931113943 0.026787322170864224 0.03112202780689829 -10.78953004165939 -0.00915444800721094 
